<svg width="733" height="588" viewBox="0 0 733 588" fill="none" xmlns="http://www.w3.org/2000/svg">
<path opacity="0.309804" d="M144.25 368.063C144.833 367.98 145.167 368.146 145.25 368.563L145.75 368.063H155.75L156.25 368.563H183.75L184.25 369.063H193.25L193.75 368.563H200.25L200.75 368.063H204.75L205.25 368.563H211.75L212.25 369.063H232.75L233.25 368.563C234.083 368.73 234.583 368.563 234.75 368.063H237.25L238.25 369.063C238.917 369.063 239.333 369.063 239.5 369.063V369.313V372.813V373.063H238.5V374.063H237.75L237 374.813L237.5 375.313L237.25 375.563C236.583 375.563 236.167 375.563 236 375.563V376.563H235V377.563H234.25C233.583 377.853 233.333 378.353 233.5 379.063H232.5V380.063H231.75L229 382.813V383.563H228V384.313L226.75 385.563C226.083 385.563 225.667 385.563 225.5 385.563C225.5 385.73 225.5 386.146 225.5 386.813L224 388.313V388.813L222 390.813V391.563C221.293 391.396 220.793 391.646 220.5 392.313V393.063H219.5V394.063H218.5V395.063H217.75L216 396.813V397.313L213.25 400.063H212.5V401.063H211.5V402.563H210C210 402.73 210 403.146 210 403.813L209 404.813V405.313L208.25 406.063C207.5 405.813 207.25 406.063 207.5 406.813L205.75 408.563H205V409.313L202.75 411.563C202 411.313 201.75 411.563 202 412.313C201.71 412.98 201.21 413.23 200.5 413.063V414.063H199.5V415.563H198.5V416.563H197V418.063H196V419.063H195.25L194.25 420.063H193.5V421.563H192.5V422.313L192 422.813V423.563H191V424.313L190 425.313V426.063H189V427.063H187.5V428.563H186.75L185.5 429.813V430.313L183.75 432.063H183V433.063H181.5V433.813C181.083 433.896 180.917 434.23 181 434.813L180.25 435.563C179.5 435.313 179.25 435.563 179.5 436.313L178.75 437.063H178V438.063H177V438.813C176.583 438.896 176.417 439.23 176.5 439.813L175.5 440.813V441.563H174.5V442.563H173.5V443.563H172.75L172 444.313V444.813L168.25 448.563H167.5V449.563H166.5V450.313L165.5 451.313V451.813L164.75 452.563H164.25L163.25 453.563H162.5V454.313L162 454.813V455.313C161.583 455.396 161.417 455.73 161.5 456.313L160.25 457.563H159.75L159 458.313V459.063H158V459.813L156.25 461.563H155.5V462.563H154.75L154 463.313V463.813L152 465.813V466.563H151V467.563H150V468.563H149.25C148.583 468.856 148.333 469.356 148.5 470.063C148.333 470.063 147.917 470.063 147.25 470.063L147 470.313L147.5 470.813L146 472.313V473.063H145V473.813L141.5 477.313V478.063C141.333 478.063 140.917 478.063 140.25 478.063L140 478.313L140.5 478.813L139.75 479.563H139V480.563H138V481.563H137V482.313L136.25 483.063H135.5V484.063H134.5V484.813L132.75 486.563H132V487.563H131V488.313L130 489.313V489.813L129.25 490.563H128.5V492.063H127.5V492.813C127.21 493.48 126.71 493.73 126 493.563V494.313L124.75 495.563H124.25L123.5 496.313V496.813L122.5 497.813V498.563H121.5V499.563H120V500.563H119V501.313L118 502.313V502.813L116.5 504.313V505.063H115.5V505.813C115.21 506.48 114.71 506.73 114 506.563V507.563H113V508.313L111.25 510.063H110.5V511.063H109.5V512.563H108.5V513.313L107.25 514.563H106.75L106 515.313V516.063H104.5V516.813L104 517.313C104 517.98 104 518.396 104 518.563H103.25L101.25 520.563H100.75L100 521.313C100 521.98 100 522.396 100 522.563H99V523.313C98.707 523.98 98.207 524.23 97.5 524.063V525.063H96.5V525.813L95 527.313V527.813L93.75 529.063H93V530.063H92V531.063H91.25C90.583 531.356 90.333 531.856 90.5 532.563H89.5V533.563H88.5V534.313L87.5 535.313V535.813L86.25 537.063C85.5 536.813 85.25 537.063 85.5 537.813C85.083 537.896 84.917 538.23 85 538.813L84.25 539.563H83.5V540.563H82.75C82.083 540.856 81.833 541.356 82 542.063H81.25L80 543.313V544.063H79V544.813L78.25 545.563H77.5V546.563H76.5V547.313L75.5 548.313V549.063H74V550.063H73V551.563H71.5V552.563H70.5C70.5 552.733 70.5 553.143 70.5 553.813L65.75 558.563H65V559.313L64.25 560.063H63.75L60.75 563.063H60V563.813L59.25 564.563H58.5V565.563H56.5V566.313C56.21 566.983 55.71 567.233 55 567.063V568.063H54V569.063H52V569.813L51.25 570.563H50.5V571.563H49.75L48.25 572.563C47.583 572.563 47.167 572.563 47 572.563V573.313L46.25 574.063H45.25L43.75 575.563H43.25L42.75 576.063H42.25C42.167 576.483 41.833 576.643 41.25 576.563L40.25 577.563C39.917 576.893 39.583 576.893 39.25 577.563H38.5V578.563H36.5V579.313C36.25 580.063 35.5 580.313 34.25 580.063L33.25 581.063L32.75 580.563L31.75 581.563C31.167 581.483 30.833 581.643 30.75 582.063H28.25H28V582.813L27.25 583.563H25.25L24.25 584.563H21.25H21V585.313L20.25 586.063H16.75L16.25 586.563H14.25L13.75 587.063H2.75L2.25 586.563H1.5V585.813L0.5 584.313V583.313L1.5 582.313V579.813L2 579.313V578.813L3 577.313V574.313C3.417 574.233 3.583 573.893 3.5 573.313L4.5 572.313C3.917 572.063 3.75 571.393 4 570.313L4.5 569.813V569.313L5.5 567.813V563.813L6 563.313C5.75 562.233 5.917 561.563 6.5 561.313V559.313L7.5 558.313V554.313L8 553.813V553.063H9V552.813V548.813L9.5 548.313C9.333 547.483 9.5 546.983 10 546.813V544.313L11 543.313V540.313L12.5 538.813V535.313L13.5 533.813V531.313L14 530.813V527.313L14.5 526.813V524.313L15 523.813V522.813L16 521.313V519.313L17 517.813V515.313L18.5 513.813V512.813L18 512.313L18.5 511.813C17.833 511.48 17.833 511.146 18.5 510.813C18.417 510.23 18.583 509.896 19 509.813V507.313L19.5 506.813V504.813L20.5 503.813V501.813L21 501.313C20.333 500.98 20.333 500.646 21 500.313C20.833 499.48 21 498.98 21.5 498.813V495.813L22 495.313V494.563H23V494.313V489.813L23.5 489.313C23.333 488.48 23.5 487.98 24 487.813V484.813L25 483.313V480.313L25.5 479.813V479.063H26.5V478.813V475.313L28 473.813V470.313L28.5 469.813V466.813L29 466.313C28.833 465.48 29 464.98 29.5 464.813V463.313L30 462.813V458.813L30.75 458.063C31.377 458.23 31.627 458.146 31.5 457.813V453.813L32.5 452.813V449.813L33.5 448.313V445.813L35 444.313C34.583 444.23 34.417 443.896 34.5 443.313L36 441.813V440.313L37 439.313V437.813L37.5 437.313V436.813L38.5 435.313V434.313L39.5 433.313V431.813L40.5 430.813V429.813L41 429.313V428.563H42C42 428.313 42 427.73 42 426.813L44 424.313C43.833 423.313 44.083 422.73 44.75 422.563H45.5C45.5 422.396 45.5 421.98 45.5 421.313C45.793 420.646 46.293 420.396 47 420.563C47 420.396 47 419.98 47 419.313C47.417 419.23 47.583 418.896 47.5 418.313L48.5 417.313V416.313L50 414.813V414.313C50.417 414.23 50.583 413.896 50.5 413.313L53.5 410.313C53.333 409.313 53.583 408.73 54.25 408.563H55V407.063H56V406.313L57.75 404.563H58.5V403.563H59.5V402.813L62.25 400.063H63V398.563H63.75L64.75 397.563H65.25L66 396.813C65.75 396.063 66 395.813 66.75 396.063L68 394.813V394.063H68.75L69.75 393.063H70.25L71.75 391.563H72.5V390.563H74V389.813C74.293 389.146 74.793 388.896 75.5 389.063V388.063H77.5V387.313L78.25 386.563H78.75L79.75 385.563C80.417 385.563 80.833 385.563 81 385.563V384.563H82.5V383.563H83.25C83.333 383.146 83.667 382.98 84.25 383.063L85.25 382.063H86.25L87.25 381.063H89.25H89.5C89.333 380.356 89.583 379.856 90.25 379.563L90.75 380.063L92.25 378.563H94.25L95.25 377.563H95.75L96.75 376.563C97.333 376.646 97.667 376.48 97.75 376.063C98.083 376.73 98.417 376.73 98.75 376.063H99.75L100.75 375.063H103.25H103.5V374.063H103.75H106.75H107V373.063H107.75L108.25 372.563H111.25L112.25 371.563C112.833 371.646 113.167 371.48 113.25 371.063H116.75L118.25 370.063H123.75L124.75 369.063H135.25L135.75 368.563H143.75L144.25 368.063Z" fill="#FFE89F" stroke="#FFF1C7"/>
<path opacity="0.988235" d="M249.75 0.562641H257.25L257.75 1.06264H263.25L263.75 0.562641H266.75L267.25 1.06264H283.75C283.917 0.562641 284.417 0.395641 285.25 0.562641L285.75 1.06264H298.25C298.583 0.395641 298.917 0.395641 299.25 1.06264H303.25L303.75 0.562641H307.25C307.417 1.06264 307.917 1.22964 308.75 1.06264L309.25 0.562641H315.25C315.333 0.979641 315.667 1.14564 316.25 1.06264L316.75 0.562641H335.25C335.583 1.22964 335.917 1.22964 336.25 0.562641H343.75L344.25 1.06264H370.25L370.75 0.562641H388.25C388.5 1.14564 389.167 1.31264 390.25 1.06264L390.75 0.562641H414.75L415.25 1.06264H464.75L465.25 0.562641H472.75L473.25 1.06264H550.25L550.75 1.56264L551.25 1.06264H559.75C560.083 1.72964 560.417 1.72964 560.75 1.06264H563.25C563.417 1.56264 563.917 1.72964 564.75 1.56264L565.25 1.06264H570.25C570.583 1.72964 570.917 1.72964 571.25 1.06264H575.25C575.333 1.47964 575.667 1.64564 576.25 1.56264L576.75 1.06264H585.75C585.917 1.56264 586.417 1.72964 587.25 1.56264L587.75 1.06264H596.75L597.25 1.56264H611.25L611.75 1.06264H621.25L621.75 1.56264H651.75C651.92 1.06264 652.42 0.895641 653.25 1.06264L653.75 1.56264H729.75C730.08 0.895641 730.42 0.895641 730.75 1.56264C731.5 1.31264 731.75 1.56264 731.5 2.31264C732.17 2.64564 732.17 2.97964 731.5 3.31264V3.81264L728 7.31264V7.81264L727.25 8.56264H726.5V9.56264H725.5V10.3126L716 19.8126V20.3126L711.5 24.8126V25.3126L705.5 31.3126V32.0626H704.75L703.5 33.3126V33.8126L699.5 37.8126V38.5626H698.5V39.3126L693.5 44.3126V45.0626H692.5V45.8126L687.5 50.8126V51.3126L686.75 52.0626C686 51.8126 685.75 52.0626 686 52.8126L681.5 57.3126V58.0626H680.75L679.5 59.3126C679.75 60.0626 679.5 60.3126 678.75 60.0626L678 60.8126V61.3126L670 69.3126V69.8126L668.5 71.3126V72.0626H667.5V72.8126L660.5 79.8126V80.3126L654.5 86.3126V86.8126L650 91.3126V91.8126L649.25 92.5626C648.5 92.3126 648.25 92.5626 648.5 93.3126L640 101.813V102.313L635.5 106.813V107.563H634.75L631.25 111.063H630.5V112.063H629.75L627.25 114.563H626.75L624.75 116.563H624.25L622.75 118.063H622.25L620.75 119.563H620.25L619.25 120.563H618.75L617.25 122.063H616.75L614.25 124.063H613.75C613.67 124.48 613.33 124.646 612.75 124.563L610.25 126.563H609.25L608.25 127.563H607.75L606.75 128.563H606.25C606.17 128.98 605.83 129.146 605.25 129.063L604.25 130.063H603.25L602.25 131.063H601.25L600.75 131.563H600.25L598.75 132.563H597.75L596.25 133.563H595.25L594.25 134.563H593.25L591.75 135.563H590.75C590.583 136.063 590.083 136.23 589.25 136.063L587.75 137.063H586.25L585.75 137.563H584.75L584.25 138.063C583.417 137.896 582.917 138.063 582.75 138.563H581.25L580.75 139.063C579.917 138.896 579.417 139.063 579.25 139.563H577.75L577.25 140.063H575.25L574.75 140.563C573.917 140.396 573.417 140.563 573.25 141.063H571.75L571.25 141.563H568.75L568.25 142.063H566.25L565.75 142.563H561.25L560.75 143.063H555.25L554.75 143.563H551.25L550.75 144.063H255.25L254.75 144.563H245.75L245.25 145.063H240.25L239.75 145.563H234.75L234.25 146.063H232.25L231.75 146.563H227.25L226.75 147.063H223.75L223.25 147.563H220.75L220.25 148.063C219.167 147.813 218.5 147.98 218.25 148.563H215.25L214.75 149.063H212.75L212.25 149.563C211.167 149.313 210.5 149.48 210.25 150.063H208.25L207.75 150.563C206.917 150.396 206.417 150.563 206.25 151.063H204.75L204.25 151.563H202.75L202.25 152.063H200.75C200.5 152.646 199.833 152.813 198.75 152.563L198.25 153.063C197.667 152.98 197.333 153.146 197.25 153.563H196.25L195.75 154.063H194.25L193.75 154.563H192.25C192.083 155.063 191.583 155.23 190.75 155.063L189.25 156.063H187.75L187.25 156.563C186.667 156.48 186.333 156.646 186.25 157.063H185.25L184.75 157.563H184.25L183.75 158.063H183.25L182.75 158.563H182.25L180.75 159.563H179.75L179.25 160.063H178.75L177.25 161.063H176.25C176.083 161.563 175.583 161.73 174.75 161.563C174.667 161.98 174.333 162.146 173.75 162.063L172.75 163.063H171.75L171.25 163.563H170.75L170.25 164.063H169.75C169.667 164.48 169.333 164.646 168.75 164.563L167.75 165.563H166.75L164.25 167.563H163.75C163.667 167.98 163.333 168.146 162.75 168.063L161.75 169.063H160.75L158.25 171.063H157.75C157.667 171.48 157.333 171.646 156.75 171.563L155.75 172.563H155.25L154.25 173.563H153.75L152.25 175.063H151.75L149.25 177.563H148.75L146.75 179.563H146.25L143.75 182.063H143.25L140.75 184.563H140V185.563H139.25L131.5 193.313V194.063H130.5V195.063H129.5V195.813L128 197.313V197.813L126.5 199.313V199.813L123.5 202.813V203.313L121.5 205.313V205.813L120 207.313V207.813L117.5 210.313V210.813L116 212.313V212.813L114 214.813V215.313L113 216.313V216.813L111.5 218.313V218.813L110.5 219.813V220.313L109 221.813V222.313L107.5 223.813V224.313L105.5 226.313V226.813L104 228.313V228.813L103 229.813V230.313L102 231.313V231.813L100.5 233.313V233.813L99.5 234.813V235.313L98 236.813V237.313L97 238.313V238.813L95.5 240.313V240.813L94 242.313V242.813L92.5 244.313V244.813L91.5 245.813V246.313L89 248.813V249.313L88 250.313V250.813L86.5 252.313V252.813L85.5 253.813V254.313L84.5 255.313V255.813L83 257.313V257.813L81.5 259.313V259.813L79.5 261.813V262.313L78 263.813V264.313L77 265.313V266.063H76V266.813L75 267.813V268.313L74 269.313V269.813L72.5 271.313V271.813L71 273.313V273.813L70 274.813V275.313L68.25 277.063H67.75L67 276.313V274.313L67.5 273.813C67.417 273.23 67.583 272.896 68 272.813V271.813L68.5 271.313V269.313L69 268.813V267.313C69.583 267.063 69.75 266.396 69.5 265.313L70 264.813V263.813L70.5 263.313C70.333 262.48 70.5 261.98 71 261.813V260.313L71.5 259.813V258.313L72 257.813V255.313L72.5 254.813C72.333 253.98 72.5 253.48 73 253.313V250.813L73.5 250.313C73.333 249.48 73.5 248.98 74 248.813V246.813L74.5 246.313V244.313L75.5 243.313V241.313L76 240.813C75.833 239.98 76 239.48 76.5 239.313C76.25 238.23 76.417 237.563 77 237.313V235.313L77.5 234.813C77.333 233.98 77.5 233.48 78 233.313V230.313L78.5 229.813C78.333 228.98 78.5 228.48 79 228.313V226.813L79.5 226.313V224.813L80 224.313V222.813L80.5 222.313V220.813L81 220.313C80.75 219.23 80.917 218.563 81.5 218.313V216.313L82 215.813C81.833 214.98 82 214.48 82.5 214.313V212.813L83 212.313V210.813L83.5 210.313V208.313L84 207.813V205.813L84.5 205.313C84.333 204.48 84.5 203.98 85 203.813V201.813L85.5 201.313V199.313L86 198.813V197.313L86.5 196.813V195.813L87 195.313C86.833 194.48 87 193.98 87.5 193.813V191.313L88 190.813C87.833 189.98 88 189.48 88.5 189.313V186.813L89 186.313C88.833 185.48 89 184.98 89.5 184.813V182.313L90 181.813C89.75 180.73 89.917 180.063 90.5 179.813V177.813L91 177.313V176.313L92 174.813V172.313L92.5 171.813C92.25 170.73 92.417 170.063 93 169.813V167.813C93.583 167.563 93.75 166.896 93.5 165.813L94 165.313C93.833 164.48 94 163.98 94.5 163.813V161.313L95 160.813C94.833 159.98 95 159.48 95.5 159.313V157.313L96 156.813C95.833 155.98 96 155.48 96.5 155.313V153.813L97 153.313V150.813L97.5 150.313C97.333 149.48 97.5 148.98 98 148.813V146.813L98.5 146.313C98.333 145.48 98.5 144.98 99 144.813V142.813L99.5 142.313V140.813L100 140.313C99.75 139.23 99.917 138.563 100.5 138.313V136.313L101.5 134.813V132.813L102 132.313V130.813L102.5 130.313V128.813C103.083 128.563 103.25 127.896 103 126.813L103.5 126.313C103.333 125.48 103.5 124.98 104 124.813V122.813L105 121.313V119.813L105.5 119.313V118.313L106 117.813V116.813C106.5 116.646 106.667 116.146 106.5 115.313L107.5 113.813V111.313L108.5 109.813V108.813L109 108.313V107.313L109.5 106.813V105.813C110 105.646 110.167 105.146 110 104.313L111 102.813V101.313L111.5 100.813C111.417 100.23 111.583 99.8956 112 99.8126V98.8126L113 97.3126V96.3126C113.5 96.1456 113.667 95.6456 113.5 94.8126L114.5 93.8126V92.3126L115.5 91.3126V90.3126L116 89.8126V89.3126L117 87.8126V86.8126L117.5 86.3126V85.8126L118 85.3126V84.8126L119 83.3126V82.3126L120 81.3126V80.8126L120.5 80.3126V79.8126L121 79.3126V78.8126C121.417 78.7296 121.583 78.3956 121.5 77.8126L122.5 76.8126V76.3126L123 75.8126V75.3126L123.5 74.8126V74.3126L124 73.8126V73.3126C124.417 73.2296 124.583 72.8956 124.5 72.3126L125.5 71.3126V70.8126L126 70.3126V69.8126C126.417 69.7296 126.583 69.3956 126.5 68.8126L127.5 67.8126V67.3126C127.917 67.2296 128.083 66.8956 128 66.3126L129 65.3126V64.8126L130 63.8126V63.3126L131.5 61.8126V61.3126L132.5 60.3126V59.8126L134 58.3126V57.8126L136 55.8126V55.3126L137 54.3126V53.8126L139.5 51.3126V50.8126L142 48.3126V47.8126L152.75 37.0626H153.25L155.25 35.0626H155.75L157.25 33.5626H158V32.5626H158.75C158.833 32.1456 159.167 31.9796 159.75 32.0626L161.75 30.0626H162.25L164.25 28.0626H164.75L165.75 27.0626H166.25C166.333 26.6456 166.667 26.4796 167.25 26.5626L168.75 25.0626H169.75L170.75 24.0626H171.25L173.75 22.0626H174.25C174.333 21.6456 174.667 21.4796 175.25 21.5626L176.25 20.5626H176.75C176.833 20.1456 177.167 19.9796 177.75 20.0626L178.75 19.0626H179.25L180.75 18.0626H181.75L182.25 17.5626H182.75C182.833 17.1456 183.167 16.9796 183.75 17.0626L184.75 16.0626H185.75L186.25 15.5626H186.75L187.25 15.0626H187.75C187.833 14.6456 188.167 14.4796 188.75 14.5626L189.75 13.5626H191.75L192.75 12.5626H193.75C193.917 12.0626 194.417 11.8956 195.25 12.0626L196.25 11.0626H197.75L198.25 10.5626C198.833 10.6456 199.167 10.4796 199.25 10.0626H200.25L201.75 9.06264H203.25L203.75 8.56264C204.583 8.72964 205.083 8.56264 205.25 8.06264H206.75C207 7.47964 207.667 7.31264 208.75 7.56264L209.75 6.56264H211.75L212.25 6.06264C213.333 6.31264 214 6.14564 214.25 5.56264H216.25L217.75 4.56264C218.833 4.81264 219.5 4.64564 219.75 4.06264H222.25L222.75 3.56264H225.75L226.25 3.06264H229.25L229.75 2.56264H232.25L232.75 2.06264H235.25L235.75 1.56264H244.25L244.75 1.06264H249.25L249.75 0.562641Z" fill="url(#paint0_linear_102_7)" stroke="#B34443"/>
<path opacity="0.988235" d="M280.75 200.563C281.583 200.396 282.083 200.563 282.25 201.063H284.25L284.75 200.563H296.75L297.25 201.063H306.75L307.25 200.563H317.75L318.25 201.063H326.25L326.75 200.563H334.25L334.75 201.063H346.75L347.25 200.563H353.25L353.75 201.063H364.25L364.75 200.563H373.25L373.75 201.063H509.75L510.25 201.563C510.417 201.063 510.917 200.896 511.75 201.063C512.083 201.73 512.417 201.73 512.75 201.063H517.75L518.25 201.563H555.25L556 202.313V203.313L554 205.313V205.813L548 211.813V212.563H547V213.313L541 219.313V219.813L538.5 222.313V222.813L535 226.313V227.063H534V227.813L528.5 233.313V233.813L527.75 234.563C527 234.313 526.75 234.563 527 235.313L525.5 236.813V237.563H524.5V238.313L518.5 244.313V245.063H517.5V245.813L515 248.313V248.813L511.5 252.313V253.063C510.793 252.896 510.293 253.146 510 253.813V254.313L506.5 257.813V258.313L500.5 264.313V265.063H499.5V266.063H498.5V266.813L494 271.313V271.813L490 275.813V276.563H489V277.313L486.5 279.813V280.563H485.5V281.313L479.5 287.313V287.813L473.5 293.813V294.563H472.5V295.313L469 298.813V299.313L466.5 301.813V302.313L464.75 304.063H464V305.063H463V305.813L462.25 306.563H461.75L459.75 308.563H459.25L456.75 311.063H456.25L454.25 313.063H453.75L451.25 315.563H450.75L449.25 317.063C448.583 317.063 448.167 317.063 448 317.063V318.063H447.25C447.167 318.48 446.833 318.646 446.25 318.563L445.25 319.563H444.75L443.75 320.563H443.25L442.75 321.063H442.25L441.75 321.563H441.25L440.75 322.063H440.25L439.75 322.563H439.25L438.75 323.063H438.25L437.75 323.563H437.25L436.75 324.063H436.25L435.75 324.563H435.25L434.75 325.063H434.25L433.75 325.563H433.25L432.75 326.063H432.25C432.167 326.48 431.833 326.646 431.25 326.563L430.25 327.563H428.75L428.25 328.063H427.75L426.25 329.063H425.25L424.75 329.563H423.75C423.583 330.063 423.083 330.23 422.25 330.063L420.75 331.063H418.75L417.25 332.063H415.75L415.25 332.563C414.417 332.396 413.917 332.563 413.75 333.063H412.25L411.75 333.563C410.917 333.396 410.417 333.563 410.25 334.063H408.75L408.25 334.563H405.75L405.25 335.063H403.25L402.75 335.563H400.25L399.75 336.063H396.25L395.75 336.563H388.25L387.75 337.063H266.75L266.25 336.563H260.25L259.75 337.063H253.75L253.25 336.563H133.75L133.25 337.063H128.25L127.75 337.563H120.25L119.75 338.063H115.75L115.25 338.563H112.75L112.25 339.063H109.25L108.75 339.563C107.667 339.313 107 339.48 106.75 340.063H104.75L104.25 340.563H102.25L101.75 341.063H100.25C100 341.646 99.333 341.813 98.25 341.563L97.75 342.063C96.917 341.896 96.417 342.063 96.25 342.563H94.75C94.5 343.146 93.833 343.313 92.75 343.063L91.25 344.063H89.75L88.25 345.063H86.75L85.25 346.063H84.25C84.083 346.563 83.583 346.73 82.75 346.563L81.25 347.563H80.25L79.75 348.063H79.25L78.75 348.563H78.25L77.75 349.063H77.25C77.167 349.48 76.833 349.646 76.25 349.563L75.25 350.563H74.75L74.25 351.063H73.75L73.25 351.563H72.75C72.667 351.98 72.333 352.146 71.75 352.063L70.75 353.063H70.25C70.167 353.48 69.833 353.646 69.25 353.563L68.25 354.563H67.75C67.667 354.98 67.333 355.146 66.75 355.063L65.75 356.063H65.25L64.75 356.563H64.25C64.167 356.98 63.833 357.146 63.25 357.063L62.25 358.063H61.75L59.25 360.563H58.75L57.75 361.563C56.917 361.396 56.417 361.563 56.25 362.063C55.917 361.896 55.833 361.48 56 360.813C56.417 360.73 56.583 360.396 56.5 359.813L57.5 358.813V358.313L58.25 357.563C59 357.813 59.25 357.563 59 356.813L60.5 355.313V354.813L61.5 353.813V353.313L62.5 352.313V351.813L64 350.313V349.813L66 347.813V347.313L68 345.313V344.813L69 343.813V343.313L70.5 341.813V341.313L72 339.813V339.313L74.5 336.813V336.313L76 334.813V334.313L77.5 332.813V332.313L78.5 331.313V330.813L79.5 329.813V329.313L81 327.813V327.313C81.417 327.23 81.583 326.896 81.5 326.313L83 324.813V324.313L85 322.313V321.813L86 320.813V320.313L87 319.313V318.813L88.5 317.313V316.813L89.5 315.813V315.313L91 313.813V313.313L93 311.313V310.813L94.5 309.313V308.813L95.5 307.813V307.313L97 305.813V305.313L98 304.313V303.813L100 301.813V301.313C100.417 301.23 100.583 300.896 100.5 300.313L102.5 298.313V297.813L104 296.313V295.813L105 294.813V294.313L106.5 292.813V292.313L108.5 290.313V289.813L109.5 288.813V288.313L111 286.813V286.313L112 285.313V284.813L113.5 283.313V282.813L114.5 281.813V281.313L117 278.813V278.313L118 277.313V276.813L119 275.813V275.313L120.5 273.813V273.313L123 270.813V270.313L124 269.313V268.813L125.5 267.313V266.813L126.5 265.813V265.313L127.5 264.313V263.813L129 262.313V261.813L131.5 259.313V258.813L132.5 257.813V257.313L134.5 255.313V254.813C134.917 254.73 135.083 254.396 135 253.813L136.5 252.313V251.813L138 250.313V249.813L139 248.813V248.313L141 246.313V245.813L143 243.813V243.313L144 242.313V241.813L145.5 240.313V239.813L148.5 236.813V236.313L149.25 235.563H150V234.563H151V233.813L152.75 232.063H153.25L157.75 227.563H158.25L159.25 226.563H159.75L161.25 225.063H161.75L162.75 224.063H163.25L164.25 223.063H164.75L166.25 221.563H166.75L169.25 219.563H169.75C169.833 219.146 170.167 218.98 170.75 219.063L173.25 217.063H174.25L175.25 216.063H175.75L176.25 215.563H176.75L177.25 215.063H177.75L178.25 214.563H178.75L180.25 213.563H181.25L181.75 213.063H182.25L183.75 212.063H184.75L185.25 211.563C185.833 211.646 186.167 211.48 186.25 211.063H187.25L188.75 210.063H189.75C189.917 209.563 190.417 209.396 191.25 209.563L192.75 208.563H194.25L195.75 207.563H197.75L198.25 207.063C199.083 207.23 199.583 207.063 199.75 206.563H201.25C201.5 205.98 202.167 205.813 203.25 206.063L203.75 205.563C204.583 205.73 205.083 205.563 205.25 205.063H208.25L208.75 204.563C209.583 204.73 210.083 204.563 210.25 204.063H214.25L214.75 203.563C215.583 203.73 216.083 203.563 216.25 203.063H219.75L220.25 202.563H225.75L226.25 202.063H230.75L231.25 201.563H237.75L238.25 201.063H280.25L280.75 200.563Z" fill="url(#paint1_linear_102_7)" stroke="url(#paint2_linear_102_7)"/>
<defs>
<linearGradient id="paint0_linear_102_7" x1="399.501" y1="0.5" x2="399.501" y2="277.063" gradientUnits="userSpaceOnUse">
<stop stop-color="#990B10"/>
<stop offset="1" stop-color="#330405"/>
</linearGradient>
<linearGradient id="paint1_linear_102_7" x1="55.9166" y1="281.281" x2="556" y2="281.281" gradientUnits="userSpaceOnUse">
<stop stop-color="#B34443"/>
<stop offset="1" stop-color="#4D1D1D"/>
</linearGradient>
<linearGradient id="paint2_linear_102_7" x1="55.9166" y1="281.281" x2="556" y2="281.281" gradientUnits="userSpaceOnUse">
<stop stop-color="#990B10"/>
<stop offset="1" stop-color="#4D1D1D"/>
</linearGradient>
</defs>
</svg>
